<?xml version="1.0" encoding="utf-8"?>
<!-- Designed by Vexels.com - 2020 All Rights Reserved - https://vexels.com/terms-and-conditions/  -->
<svg version="1.1" id="Layer_1" xmlns="http://www.w3.org/2000/svg" xmlns:xlink="http://www.w3.org/1999/xlink" x="0px" y="0px"
	 viewBox="0 0 1200 1200" enable-background="new 0 0 1200 1200" xml:space="preserve">
<g>
	<path fill="#EB4D80" d="M951.639,891.91c-30.669,0-55.529,24.861-55.529,55.529c0,30.667,24.86,55.528,55.529,55.528
		c30.666,0,55.527-24.861,55.527-55.528C1007.167,916.772,982.306,891.91,951.639,891.91z"/>
	<path fill="#EB4D80" d="M502.981,891.91c-30.668,0-55.527,24.861-55.527,55.529c0,30.667,24.86,55.528,55.527,55.528
		c30.668,0,55.529-24.861,55.529-55.528C558.51,916.772,533.648,891.91,502.981,891.91z"/>
	<path fill="#EB4D80" d="M1133.594,386.285c-15.897-21.494-40.347-33.825-67.08-33.825H466.248
		c-13.681,0-24.769,11.088-24.769,24.769c0,13.681,11.088,24.769,24.769,24.769h600.266c10.856,0,20.783,5.007,27.246,13.739
		c6.454,8.727,8.331,19.69,5.138,30.071l-88.076,287.235c-4.383,14.32-17.396,23.942-32.384,23.942H482.57
		c-14.949,0-27.952-9.598-32.364-23.884L302.858,255.845c-10.856-35.175-42.882-58.812-79.697-58.812H74.769
		C61.088,197.033,50,208.121,50,221.802c0,13.681,11.088,24.769,24.769,24.769h148.393c14.949,0,27.952,9.598,32.364,23.884
		l147.348,477.257c10.856,35.175,42.882,58.812,79.697,58.812h495.867c36.893,0,68.947-23.695,79.755-58.962l88.066-287.231
		C1154.106,434.773,1149.481,407.784,1133.594,386.285z"/>
	<path fill="#EB4D80" d="M948.376,545.935c0-8.21-6.657-14.862-14.862-14.862H557.71c-8.205,0-14.862,6.652-14.862,14.862
		c0,8.21,6.657,14.862,14.862,14.862h375.805C941.719,560.796,948.376,554.144,948.376,545.935z"/>
	<path fill="#EB4D80" d="M578.89,632.961c-8.205,0-14.862,6.652-14.862,14.862c0,8.21,6.657,14.861,14.862,14.861h326.827
		c8.205,0,14.862-6.652,14.862-14.861c0-8.21-6.657-14.862-14.862-14.862H578.89z"/>
</g>
</svg>
