<svg xmlns="http://www.w3.org/2000/svg" xmlns:xlink="http://www.w3.org/1999/xlink" viewBox="0 0 329.49 70.84"><defs><style>.cls-1{fill:#5a5b5b;}.cls-2{fill:url(#radial-gradient);}.cls-3{fill:url(#linear-gradient);}.cls-4{fill:url(#radial-gradient-2);}.cls-5{fill:url(#linear-gradient-2);}.cls-6{fill:url(#radial-gradient-3);}.cls-7{fill:url(#linear-gradient-3);}.cls-8{fill:url(#radial-gradient-4);}</style><radialGradient id="radial-gradient" cx="193.87" cy="35.31" r="21.77" gradientUnits="userSpaceOnUse"><stop offset="0" stop-color="#ffc713"/><stop offset="0.15" stop-color="#fcbd15"/><stop offset="0.39" stop-color="#f5a41a"/><stop offset="0.7" stop-color="#e97a23"/><stop offset="0.9" stop-color="#e05b29"/><stop offset="1" stop-color="#dd5430"/></radialGradient><linearGradient id="linear-gradient" x1="14.95" y1="12.79" x2="42.03" y2="12.79" gradientUnits="userSpaceOnUse"><stop offset="0" stop-color="#147bc1"/><stop offset="0.23" stop-color="#1475b7"/><stop offset="0.62" stop-color="#13659e"/><stop offset="1" stop-color="#12527e"/></linearGradient><radialGradient id="radial-gradient-2" cx="12.29" cy="34.95" r="24.32" gradientUnits="userSpaceOnUse"><stop offset="0" stop-color="#b8d435"/><stop offset="0.12" stop-color="#b2d236"/><stop offset="0.29" stop-color="#a1cc39"/><stop offset="0.47" stop-color="#86c23d"/><stop offset="0.67" stop-color="#60b543"/><stop offset="0.82" stop-color="#3fa948"/><stop offset="1" stop-color="#49a649"/></radialGradient><linearGradient id="linear-gradient-2" x1="13.39" y1="54.43" x2="35.21" y2="54.43" gradientUnits="userSpaceOnUse"><stop offset="0" stop-color="#338a47"/><stop offset="0.42" stop-color="#256232"/><stop offset="0.79" stop-color="#1a4422"/><stop offset="1" stop-color="#16391c"/></linearGradient><radialGradient id="radial-gradient-3" cx="57.08" cy="51.04" r="25.85" xlink:href="#radial-gradient"/><linearGradient id="linear-gradient-3" x1="74.39" y1="31.18" x2="56.8" y2="38.74" gradientUnits="userSpaceOnUse"><stop offset="0" stop-color="#ca2027"/><stop offset="0.6" stop-color="#c73927"/><stop offset="1" stop-color="#c64427"/></linearGradient><radialGradient id="radial-gradient-4" cx="47.09" cy="16.2" r="25.12" gradientUnits="userSpaceOnUse"><stop offset="0" stop-color="#c7eafb"/><stop offset="0.13" stop-color="#bde4f8"/><stop offset="0.35" stop-color="#a4d4f0"/><stop offset="0.62" stop-color="#79bae3"/><stop offset="0.94" stop-color="#4096d1"/><stop offset="1" stop-color="#358fce"/></radialGradient></defs><title>weDevs</title><g id="Layer_2" data-name="Layer 2"><g id="Layer_1-2" data-name="Layer 1"><path class="cls-1" d="M82.3,22.27h8.36l6.45,19.66h.22l7.59-17.41,7.48,17.41h.18l6.52-19.66h8.33l-14,37L105,39.47h-.22L96.34,59.22Z"/><path class="cls-1" d="M137.06,26.43a18.69,18.69,0,0,1,13.15-5.25,19.76,19.76,0,0,1,14,5.79l1.52,1.53L144.42,49.86a9.48,9.48,0,0,0,6.94,2.33,12,12,0,0,0,11.08-9.6,17.2,17.2,0,0,0,.14-5.25l7.21-2a23,23,0,0,1-.57,8.58,21,21,0,0,1-5.34,9.61q-6.37,6.08-14,6.12a19.05,19.05,0,0,1-19-18.83Q130.7,33.15,137.06,26.43Zm2.85,18.92,14.93-14.93a12.71,12.71,0,0,0-7.05-1.6A10.43,10.43,0,0,0,141.2,32a10.19,10.19,0,0,0-3.11,6.4A11.43,11.43,0,0,0,139.91,45.35Z"/><path class="cls-2" d="M213,11.21v46.7h-7.38V54.22h-.16a15.67,15.67,0,0,1-4.82,3.65,17.73,17.73,0,0,1-7.13,1.54q-8.62-.3-13.67-5.76a19.14,19.14,0,0,1-5.17-13.26,19.44,19.44,0,0,1,5.28-13q5.16-5.76,14-6.09a15.24,15.24,0,0,1,7,1.81c1.9,1,3.41,1.67,4.51,4.12h.16v-16Zm-7.1,29.1a12,12,0,0,0-3.3-8.23,11.15,11.15,0,0,0-8.1-3.54,11.3,11.3,0,0,0-8.34,3.57,12.1,12.1,0,0,0-3.28,8.2,11.92,11.92,0,0,0,3.39,8.41,11.37,11.37,0,0,0,8.23,3.46,11,11,0,0,0,8.1-3.57A12.22,12.22,0,0,0,205.94,40.31Z"/><path class="cls-1" d="M227.59,26.43a18.71,18.71,0,0,1,13.15-5.25,19.75,19.75,0,0,1,14,5.79l1.53,1.53L235,49.86a9.48,9.48,0,0,0,7,2.33A12,12,0,0,0,253,42.59a17.53,17.53,0,0,0,.14-5.25l7.21-2a23.28,23.28,0,0,1-.58,8.58,21.12,21.12,0,0,1-5.33,9.61q-6.37,6.08-14,6.12a19.05,19.05,0,0,1-19-18.83Q221.25,33.15,227.59,26.43Zm2.85,18.92,14.93-14.93a12.79,12.79,0,0,0-7.05-1.61A10.47,10.47,0,0,0,231.74,32a10.14,10.14,0,0,0-3.11,6.4A11.42,11.42,0,0,0,230.44,45.35Z"/><path class="cls-1" d="M263,22.27h8.5l8.07,20.89h.22l8-20.89h8.62L279.68,59.4Z"/><path class="cls-1" d="M314,21.25a21.62,21.62,0,0,1,8.17,1.61,27.86,27.86,0,0,1,6,3.41l-4.4,5.42a17,17,0,0,0-4.2-2.76,13.11,13.11,0,0,0-5.44-1.3,8.75,8.75,0,0,0-5,1.37,4,4,0,0,0-1.85,3.21c.1,1.81,1.25,3,3.45,3.54a76.13,76.13,0,0,0,7.62,1.42,19.18,19.18,0,0,1,7.63,2.7q3.3,2.09,3.51,7.44a11,11,0,0,1-3.83,8.25q-3.82,3.59-11.49,3.81A25.24,25.24,0,0,1,304,57.15a21.33,21.33,0,0,1-6.12-4l5.31-5.35A20.81,20.81,0,0,0,308,51.38a14.26,14.26,0,0,0,6.58,1.72,8.77,8.77,0,0,0,5.28-1.52,4.2,4.2,0,0,0,1.9-3.21,3.75,3.75,0,0,0-.24-1.28,3.39,3.39,0,0,0-.78-1.21,10.46,10.46,0,0,0-5-2c-2.26-.41-4.63-.89-7.09-1.47a16.11,16.11,0,0,1-6.38-3q-2.67-2.09-2.75-6.38a11,11,0,0,1,3.87-8.35Q307.21,21.4,314,21.25Z"/><path class="cls-3" d="M15.12,20.81s-2.45-14.28,11.24-16c0,0,11.4-1.54,15.67,12.26C42,17.07,24.9,18.3,15.12,20.81Z"/><path class="cls-4" d="M42,17.07S4.53,18.07,1.27,30c0,0-8.16,16.32,16.93,37.77,0,0,11.17,6.78,19.58-2.51,0,0-14.43-14-19.2-23,0,0,13.05-13.75,25.1-19.53A34.6,34.6,0,0,0,42,17.07Z"/><path class="cls-5" d="M18.46,42.48S8.29,53,16.76,62.43c0,0,8.28,8.09,18.45,1.13C35.21,63.56,23.16,49.44,18.46,42.48Z"/><path class="cls-6" d="M23.29,37.71S41.42,48.94,52,48.69A88,88,0,0,0,62.12,20.83S74.17,24.6,73.79,37.65c0,0,1.38,10-11,25.09,0,0-8.16,9.54-16.31,7.91,0,0-15.94-7.34-28-28.17A59.07,59.07,0,0,1,23.29,37.71Z"/><path class="cls-7" d="M61.74,24S71.91,28.17,71,38.53c0,0-2.13,14.21-19.07,10.63C51.9,49.16,59.68,31.94,61.74,24Z"/><path class="cls-8" d="M11.66,21.9S8.8,7.91,22,2.39C22,2.39,25.74.13,40.29,0c0,0,16.19-.63,21.71,9.78,0,0,5.14,11.7-10.1,39.37l-1.76-.34s-1.24-.22-4.77-1.07c0,0,1.32-26.54-6.12-35.95,0,0-5.17-8.56-14.86-6.59,0,0-10.69,3.18-9.27,15.6C15.12,20.81,14.67,21,11.66,21.9Z"/></g></g></svg>